<?xml version="1.0" standalone="no"?>
<!DOCTYPE svg PUBLIC "-//W3C//DTD SVG 20010904//EN"
 "http://www.w3.org/TR/2001/REC-SVG-20010904/DTD/svg10.dtd">
<svg version="1.0" xmlns="http://www.w3.org/2000/svg"
 width="640.000000pt" height="640.000000pt" viewBox="0 0 640.000000 640.000000"
 preserveAspectRatio="xMidYMid meet">
<metadata>
Created by potrace 1.14, written by Peter Selinger 2001-2017
</metadata>
<g transform="translate(0.000000,640.000000) scale(0.100000,-0.100000)"
fill="#000000" stroke="none">
<path d="M3158 6123 c-10 -12 -17 -48 -21 -103 -27 -403 -281 -907 -728 -1445
-107 -129 -455 -477 -584 -584 -535 -445 -1021 -691 -1441 -729 l-79 -7 0 -50
0 -50 79 -7 c420 -38 906 -284 1441 -729 129 -107 477 -455 584 -584 444 -534
691 -1023 729 -1440 l7 -80 50 0 50 0 7 79 c38 420 284 906 729 1441 107 129
455 477 584 584 535 445 1021 691 1441 729 l79 7 0 50 0 50 -80 7 c-417 38
-906 285 -1440 729 -129 107 -477 455 -584 584 -447 538 -701 1042 -728 1445
-6 91 -20 120 -58 120 -12 0 -29 -8 -37 -17z"/>
</g>
</svg>
